<?xml version="1.0" encoding="utf-8"?>
<!-- Generator: Adobe Illustrator 26.2.1, SVG Export Plug-In . SVG Version: 6.00 Build 0)  -->
<svg version="1.1" id="Capa_1" xmlns="http://www.w3.org/2000/svg" xmlns:xlink="http://www.w3.org/1999/xlink" x="0px" y="0px"
	 viewBox="0 0 39.29 40" style="enable-background:new 0 0 39.29 40;" xml:space="preserve">
<style type="text/css">
	.st0{fill:#D9A3DD;}
</style>
<path class="st0" d="M16.51,17.98c-1.78,0-3.52-0.53-4.99-1.51s-2.63-2.39-3.31-4.03S7.35,8.98,7.7,7.24
	c0.35-1.74,1.2-3.35,2.46-4.6c1.26-1.26,2.86-2.11,4.6-2.46C16.5-0.17,18.31,0,19.95,0.68C21.6,1.36,23,2.52,23.99,3.99
	c0.99,1.48,1.51,3.22,1.51,4.99c0,2.38-0.95,4.67-2.63,6.36C21.18,17.03,18.9,17.98,16.51,17.98z M16.51,2.67
	c-1.27,0-2.51,0.38-3.57,1.08c-1.06,0.71-1.88,1.71-2.36,2.88c-0.49,1.17-0.61,2.46-0.37,3.71c0.25,1.25,0.86,2.39,1.76,3.29
	c0.9,0.9,2.04,1.51,3.29,1.76c1.25,0.25,2.54,0.12,3.71-0.37c1.17-0.49,2.18-1.31,2.88-2.36c0.71-1.06,1.08-2.3,1.08-3.57
	c0-0.84-0.17-1.68-0.49-2.46c-0.32-0.78-0.8-1.49-1.39-2.08c-0.6-0.6-1.3-1.07-2.08-1.39C18.19,2.84,17.36,2.67,16.51,2.67z
	 M23.67,19.53c-6.95-1.56-14.22-0.81-20.7,2.14c-0.89,0.43-1.64,1.1-2.17,1.93C0.27,24.44,0,25.41,0,26.4v7.64
	c0,0.17,0.03,0.34,0.1,0.49c0.06,0.16,0.16,0.3,0.28,0.42c0.12,0.12,0.26,0.21,0.42,0.28c0.16,0.06,0.32,0.1,0.49,0.1
	c0.17,0,0.34-0.03,0.49-0.1c0.16-0.06,0.3-0.16,0.42-0.28c0.12-0.12,0.21-0.26,0.28-0.42c0.06-0.16,0.1-0.32,0.1-0.49V26.4
	c-0.01-0.5,0.12-0.99,0.39-1.42c0.26-0.42,0.65-0.76,1.1-0.97c3.9-1.8,8.16-2.73,12.46-2.71c2.41,0,4.81,0.28,7.15,0.85V19.53z
	 M23.85,31.74h7.88v1.8h-7.88V31.74z"/>
<path class="st0" d="M38.01,24.12h-6.64v2.57h5.35v10.75h-18.2V26.68h8.09v0.54c0,0.34,0.14,0.67,0.38,0.91
	c0.24,0.24,0.57,0.38,0.91,0.38c0.34,0,0.67-0.14,0.91-0.38c0.24-0.24,0.38-0.57,0.38-0.91v-5c0-0.34-0.14-0.67-0.38-0.91
	c-0.24-0.24-0.57-0.38-0.91-0.38c-0.34,0-0.67,0.14-0.91,0.38c-0.24,0.24-0.38,0.57-0.38,0.91v1.89h-9.37
	c-0.34,0-0.67,0.14-0.91,0.38c-0.24,0.24-0.38,0.57-0.38,0.91v13.32c0,0.34,0.14,0.67,0.38,0.91c0.24,0.24,0.57,0.38,0.91,0.38
	h20.76c0.34,0,0.67-0.14,0.91-0.38c0.24-0.24,0.38-0.57,0.38-0.91V25.4c0-0.34-0.14-0.67-0.38-0.91
	C38.68,24.25,38.35,24.12,38.01,24.12z"/>
</svg>
