<?xml version="1.0" encoding="utf-8"?>
<!-- Generator: Adobe Illustrator 26.2.1, SVG Export Plug-In . SVG Version: 6.00 Build 0)  -->
<svg version="1.1" id="Capa_1" xmlns="http://www.w3.org/2000/svg" xmlns:xlink="http://www.w3.org/1999/xlink" x="0px" y="0px"
	 viewBox="0 0 40 40" style="enable-background:new 0 0 40 40;" xml:space="preserve">
<style type="text/css">
	.st0{fill:#D9A3DD;}
</style>
<path class="st0" d="M20,8.57c-1.41,0-2.79,0.42-3.97,1.2c-1.17,0.78-2.09,1.9-2.63,3.21s-0.68,2.74-0.41,4.13
	c0.28,1.39,0.96,2.66,1.95,3.66c1,1,2.27,1.68,3.66,1.95c1.39,0.28,2.82,0.13,4.13-0.41s2.42-1.46,3.21-2.63
	c0.78-1.17,1.2-2.56,1.2-3.97c0-1.89-0.75-3.71-2.09-5.05C23.71,9.32,21.89,8.57,20,8.57z"/>
<path class="st0" d="M20,0c-3.96,0-7.82,1.17-11.11,3.37c-3.29,2.2-5.85,5.32-7.37,8.98C0.01,16-0.39,20.02,0.38,23.9
	c0.77,3.88,2.68,7.44,5.47,10.24c2.8,2.8,6.36,4.7,10.24,5.47c3.88,0.77,7.9,0.38,11.56-1.14c3.65-1.51,6.78-4.08,8.98-7.37
	C38.83,27.82,40,23.96,40,20c-0.01-5.3-2.12-10.39-5.86-14.14C30.39,2.12,25.3,0.01,20,0z M31.42,32.75
	c-0.03-1.87-0.79-3.66-2.13-4.98c-1.33-1.32-3.13-2.06-5.01-2.06h-8.57c-1.87,0-3.67,0.74-5.01,2.06c-1.33,1.32-2.1,3.1-2.13,4.98
	c-2.59-2.31-4.42-5.36-5.24-8.73s-0.6-6.92,0.64-10.16c1.24-3.24,3.43-6.04,6.29-8.01c2.86-1.97,6.25-3.03,9.72-3.03
	s6.86,1.05,9.72,3.03c2.86,1.97,5.05,4.76,6.29,8.01c1.24,3.24,1.46,6.79,0.64,10.16C35.84,27.39,34.01,30.44,31.42,32.75
	L31.42,32.75z"/>
</svg>
